<?xml version="1.0" standalone="no"?>
<!DOCTYPE svg PUBLIC "-//W3C//DTD SVG 20010904//EN"
 "http://www.w3.org/TR/2001/REC-SVG-20010904/DTD/svg10.dtd">
<svg version="1.0" xmlns="http://www.w3.org/2000/svg"
 width="300.000000pt" height="300.000000pt" viewBox="0 0 300.000000 300.000000"
 preserveAspectRatio="xMidYMid meet">
<metadata>
Created by potrace 1.11, written by Peter Selinger 2001-2013
</metadata>
<g transform="translate(0.000000,300.000000) scale(0.100000,-0.100000)"
fill="#000000" stroke="none">
<path d="M1206 2970 c-605 -130 -1040 -574 -1162 -1185 -25 -126 -25 -414 0
-540 96 -482 392 -869 819 -1070 51 -24 118 -52 151 -63 35 -12 67 -30 80 -47
20 -24 24 -26 49 -14 22 10 43 10 105 0 124 -20 298 -25 412 -12 659 77 1165
548 1296 1206 25 126 25 414 0 540 -116 582 -518 1015 -1085 1167 -112 30
-125 32 -346 34 -197 3 -243 1 -319 -16z"/>
</g>
</svg>
